<svg 
 xmlns="http://www.w3.org/2000/svg"
 xmlns:xlink="http://www.w3.org/1999/xlink"
 width="29px" height="15px">
<path fill-rule="evenodd"  opacity="0.4" fill="rgb(0, 169, 157)"
 d="M24.645,3.343 L27.438,6.114 C28.209,6.879 28.209,8.119 27.438,8.885 L24.645,11.655 C23.873,12.420 22.623,12.420 21.852,11.655 L19.059,8.885 C18.287,8.119 18.287,6.879 19.059,6.114 L21.852,3.343 C22.623,2.577 23.873,2.577 24.645,3.343 Z"/>
<path fill-rule="evenodd"  opacity="0.702" fill="rgb(0, 169, 157)"
 d="M16.782,1.958 L20.972,6.114 C21.743,6.879 21.743,8.119 20.972,8.885 L16.782,13.040 C16.011,13.805 14.760,13.805 13.989,13.040 L9.800,8.885 C9.028,8.119 9.028,6.879 9.800,6.114 L13.989,1.958 C14.760,1.192 16.011,1.192 16.782,1.958 Z"/>
<path fill-rule="evenodd"  fill="rgb(0, 169, 157)"
 d="M8.957,0.572 L14.543,6.114 C15.315,6.879 15.315,8.119 14.543,8.885 L8.957,14.426 C8.186,15.190 6.936,15.190 6.164,14.426 L0.578,8.885 C-0.193,8.119 -0.193,6.879 0.578,6.114 L6.164,0.572 C6.936,-0.193 8.186,-0.193 8.957,0.572 Z"/>
</svg>